<svg xmlns="http://www.w3.org/2000/svg" id="Capa_1" height="512" viewBox="0 0 512 512" width="512"><g><path d="m512 115.555v88c0 41.35-33.64 75-75 75h-362c-41.36 0-75-33.65-75-75v-88c0-41.35 33.64-75 75-75h362c41.36 0 75 33.65 75 75z" fill="#eef4ff"></path><path d="m512 115.555v88c0 41.35-33.64 75-75 75h-181v-238h181c41.36 0 75 33.65 75 75z" fill="#d9e6fc"></path><path d="m80 104.555c-8.284 0-15 6.716-15 15v80c0 8.284 6.716 15 15 15s15-6.716 15-15v-80c0-8.284-6.716-15-15-15z" fill="#425796"></path><path d="m334.82 294.602c.09-.09.17-.17.26-.26 5.81-5.65 15.11-5.68 20.95.03l45.92 44.92c5.92 5.79 6.03 15.29.23 21.21-.06.06-.11.11-.17.16-5.8 5.76-15.18 5.81-21.04.07l-45.92-44.92c-5.92-5.79-6.03-15.29-.23-21.21z" fill="#ffb454"></path><path d="m334.82 294.602c.09-.09.17-.17.26-.26l66.93 66.32c-5.8 5.76-15.18 5.81-21.04.07l-45.92-44.92c-5.92-5.79-6.03-15.29-.23-21.21z" fill="#ffe278"></path><ellipse cx="272" cy="231.555" fill="#78b7ea" rx="119.009" ry="119.003"></ellipse><path d="m187.85 147.405 168.3 168.3c-46.527 46.506-121.781 46.499-168.3 0-46.39-46.4-46.39-121.9 0-168.3z" fill="#bceaf9"></path><path d="m187.85 315.705c46.527 46.506 121.781 46.499 168.3 0 46.39-46.4 46.39-121.9 0-168.3-46.516-46.495-121.749-46.51-168.3 0-46.39 46.4-46.39 121.9 0 168.3zm84.15-173.15c49.18 0 89 39.811 89 89 0 49.18-39.811 89-89 89-49.18 0-89-39.811-89-89 0-49.374 39.99-89 89-89z" fill="#283758"></path><path d="m187.85 147.405 21.22 21.22c-35.142 35.141-34.428 91.433 0 125.86 34.786 34.787 91.074 34.786 125.86 0l21.22 21.22c-46.527 46.506-121.781 46.499-168.3 0-46.39-46.4-46.39-121.9 0-168.3z" fill="#425796"></path><path d="m380.77 340.325c18.356-18.356 48.092-18.389 66.46 0l50.92 50.91c18.456 18.456 18.256 48.233 0 66.47-18.33 18.32-48.15 18.32-66.47 0l-50.91-50.92c-18.372-18.351-18.375-48.105 0-66.46z" fill="#d8225b"></path><path d="m380.77 340.325c.17-.17.34-.34.51-.49l117.36 117.36c-17.146 18.198-47.881 19.589-66.96.51l-50.91-50.92c-18.372-18.351-18.375-48.105 0-66.46z" fill="#dd5958"></path></g></svg>