<svg xmlns="http://www.w3.org/2000/svg" id="Capa_1" height="512" viewBox="0 0 512 512" width="512"><g><path d="m497 121h-129c-8.284 0-15 6.716-15 15v307c0 28.719 23.281 52 52 52h55c28.719 0 52-23.281 52-52v-307c0-8.284-6.716-15-15-15z" fill="#bed9fd"></path><path d="m427.98 495h-352.98c-41.36 0-75-33.65-75-75v-388c0-8.28 6.72-15 15-15h353c8.28 0 15 6.72 15 15v409.49c0 26.199 18.695 49.123 44.98 53.51z" fill="#eef4ff"></path><path d="m427.98 495h-251.98v-478h192c8.28 0 15 6.72 15 15v409.49c0 26.199 18.695 49.123 44.98 53.51z" fill="#d9e6fc"></path><path d="m319 408c0 8.28-6.72 15-15 15h-224c-8.28 0-15-6.72-15-15s6.72-15 15-15h224c8.28 0 15 6.72 15 15z" fill="#425796"></path><path d="m319 408c0 8.28-6.72 15-15 15h-128v-30h128c8.28 0 15 6.72 15 15z" fill="#283758"></path><g fill="#425796"><path d="m128 335h-48c-8.284 0-15-6.716-15-15s6.716-15 15-15h48c8.284 0 15 6.716 15 15s-6.716 15-15 15z"></path><path d="m128 271h-48c-8.284 0-15-6.716-15-15s6.716-15 15-15h48c8.284 0 15 6.716 15 15s-6.716 15-15 15z"></path><path d="m319 168c0 8.28-6.72 15-15 15h-224c-8.28 0-15-6.72-15-15s6.72-15 15-15h224c8.28 0 15 6.72 15 15z"></path></g><path d="m319 168c0 8.28-6.72 15-15 15h-128v-30h128c8.28 0 15 6.72 15 15z" fill="#283758"></path><path d="m319 104c0 8.28-6.72 15-15 15h-224c-8.28 0-15-6.72-15-15s6.72-15 15-15h224c8.28 0 15 6.72 15 15z" fill="#425796"></path><path d="m304 119h-128v-30h128c8.28 0 15 6.72 15 15s-6.72 15-15 15z" fill="#283758"></path><path d="m318 232v112c0 8.28-6.72 15-15 15h-112c-8.28 0-15-6.72-15-15v-112c0-8.28 6.72-15 15-15h112c8.28 0 15 6.72 15 15z" fill="#ffe278"></path><path d="m318 232v112c0 8.28-6.72 15-15 15h-55v-142h55c8.28 0 15 6.72 15 15z" fill="#ffb454"></path></g></svg>