<svg id="Capa_1" enable-background="new 0 0 512 512" height="512" viewBox="0 0 512 512" width="512" xmlns="http://www.w3.org/2000/svg"><g><g><path d="m512 120c0 16.569-13.431 30-30 30h-452c-16.569 0-30-13.431-30-30v-105c0-8.284 6.716-15 15-15h482c8.284 0 15 6.716 15 15z" fill="#4d4d99"/></g><path d="m512 15c0-8.284-6.716-15-15-15h-241v150h226c16.569 0 30-13.433 30-30z" fill="#292966"/><g><path d="m512 497c0 8.284-6.716 15-15 15h-482c-8.284 0-15-6.716-15-15v-377h512z" fill="#e6f7ff"/></g><path d="m256 512h241c8.284 0 15-6.716 15-15v-377h-256z" fill="#cce6ff"/><g><circle cx="76" cy="60" fill="#9ff" r="15"/></g><g><circle cx="136" cy="60" fill="#9ff" r="15"/></g><g><circle cx="196" cy="60" fill="#9ff" r="15"/></g><g><g><g><path d="m451 60c0 8.291-6.709 15-15 15h-120c-8.291 0-15-6.709-15-15s6.709-15 15-15h120c8.291 0 15 6.709 15 15z" fill="#5a5ab3"/></g></g></g><g id="Coding_1_"><g><path d="m121 226c0-8.276 6.738-15 15-15 8.291 0 15-6.709 15-15s-6.709-15-15-15c-24.814 0-45 20.186-45 45v60c0 8.276-6.738 15-15 15-8.291 0-15 6.709-15 15s6.709 15 15 15c8.262 0 15 6.724 15 15v60c0 24.814 20.186 45 45 45 8.291 0 15-6.709 15-15s-6.709-15-15-15c-8.262 0-15-6.724-15-15v-60c0-11.567-4.508-22.02-11.704-30 7.196-7.98 11.704-18.433 11.704-30z" fill="#59abff"/><path d="m451 316c0-8.291-6.709-15-15-15-8.262 0-15-6.724-15-15v-60c0-24.814-20.186-45-45-45-8.291 0-15 6.709-15 15s6.709 15 15 15c8.262 0 15 6.724 15 15v60c0 11.567 4.508 22.02 11.704 30-7.196 7.98-11.704 18.433-11.704 30v60c0 8.276-6.738 15-15 15-8.291 0-15 6.709-15 15s6.709 15 15 15c24.814 0 45-20.186 45-45v-60c0-8.276 6.738-15 15-15 8.291 0 15-6.709 15-15z" fill="#4d87ff"/><circle cx="196" cy="436" fill="#59abff" r="15"/></g></g><g><path d="m286 241c-5.4 0-10.499 1.5-15 4.2-9 5.099-15 14.7-15 25.8v131.892c0 1.923.197 3.844.587 5.726.005.022.009.044.014.066.496 2.398 1.301 4.717 2.395 6.907l13.587 27.175c2.764 5.528 8.09 8.292 13.416 8.292s10.653-2.764 13.416-8.292l13.587-27.175c1.095-2.19 1.9-4.509 2.395-6.907.005-.022.009-.044.014-.066.39-1.883.587-3.804.587-5.726v-131.892c0-11.1-6-20.7-15-25.8-4.499-2.7-9.598-4.2-14.998-4.2z" fill="#ffc24d"/></g><g><path d="m316 271h-60v-75c0-8.284 6.716-15 15-15h30c8.284 0 15 6.716 15 15z" fill="#ff5959"/></g></g></svg>