<svg id="Capa_1" enable-background="new 0 0 512 512" height="512" viewBox="0 0 512 512" width="512" xmlns="http://www.w3.org/2000/svg"><g><g><path d="m256 271c-8.291 0-15-6.709-15-15v-61c0-8.291 6.709-15 15-15s15 6.709 15 15v61c0 8.291-6.709 15-15 15z" fill="#59abff"/></g><path d="m271 256v-61c0-8.291-6.709-15-15-15v91c8.291 0 15-6.709 15-15z" fill="#4d87ff"/><path d="m361 105v60c0 31.09-52.74 45-105 45s-105-13.91-105-45v-60c0 31.09 210 31.09 210 0z" fill="#cce6ff"/><path d="m361 165v-60c0 15.545-52.5 23.318-105 23.318v81.682c52.26 0 105-13.91 105-45z" fill="#b5c9f2"/><path d="m361 45v60c0 31.09-52.74 45-105 45s-105-13.91-105-45v-60c0 31.09 210 31.09 210 0z" fill="#e6f7ff"/><path d="m361 105v-60c0 15.545-52.5 23.318-105 23.318v81.682c52.26 0 105-13.91 105-45z" fill="#cce6ff"/><path d="m360.98 44.2c-.89-30.53-53.17-44.2-104.98-44.2s-104.09 13.67-104.98 44.2c-.01.26-.02.53-.02.8 0 31.09 52.74 45 105 45s105-13.91 105-45c0-.27-.01-.54-.02-.8z" fill="#cce6ff"/><path d="m361 45c0-.27-.01-.54-.02-.8-.89-30.53-53.17-44.2-104.98-44.2v90c52.26 0 105-13.91 105-45z" fill="#b5c9f2"/><g><path d="m179.912 345.359c-5.156 0-10.225-2.681-12.979-7.5-4.16-7.178-1.699-16.348 5.479-20.493l50.102-29.359c7.148-4.131 16.348-1.729 20.479 5.493 4.16 7.178 1.699 16.348-5.479 20.493l-50.102 29.359c-2.373 1.363-4.951 2.007-7.5 2.007z" fill="#59abff"/></g><path d="m210 407v60c0 31.09-52.74 45-105 45s-105-13.91-105-45v-60c0 31.09 210 31.09 210 0z" fill="#cce6ff"/><path d="m210 467v-60c0 15.545-52.5 23.318-105 23.318v81.682c52.26 0 105-13.91 105-45z" fill="#b5c9f2"/><path d="m210 347v60c0 31.09-52.74 45-105 45s-105-13.91-105-45v-60c0 31.09 210 31.09 210 0z" fill="#e6f7ff"/><path d="m210 407v-60c0 15.545-52.5 23.318-105 23.318v81.682c52.26 0 105-13.91 105-45z" fill="#cce6ff"/><path d="m209.98 346.2c-.89-30.53-53.17-44.2-104.98-44.2s-104.09 13.67-104.98 44.2c-.01.26-.02.53-.02.8 0 31.09 52.74 45 105 45s105-13.91 105-45c0-.27-.01-.54-.02-.8z" fill="#cce6ff"/><path d="m210 347c0-.27-.01-.54-.02-.8-.89-30.53-53.17-44.2-104.98-44.2v90c52.26 0 105-13.91 105-45z" fill="#b5c9f2"/><g><path d="m332.088 345.359c-2.549 0-5.127-.645-7.5-2.007l-50.102-29.359c-7.178-4.146-9.639-13.315-5.479-20.493 4.131-7.207 13.33-9.58 20.479-5.493l50.102 29.359c7.178 4.146 9.639 13.315 5.479 20.493-2.755 4.82-7.823 7.5-12.979 7.5z" fill="#4d87ff"/></g><path d="m512 407v60c0 31.09-52.74 45-105 45s-105-13.91-105-45v-60c0 31.09 210 31.09 210 0z" fill="#cce6ff"/><path d="m512 467v-60c0 15.545-52.5 23.318-105 23.318v81.682c52.26 0 105-13.91 105-45z" fill="#b5c9f2"/><path d="m512 347v60c0 31.09-52.74 45-105 45s-105-13.91-105-45v-60c0 31.09 210 31.09 210 0z" fill="#e6f7ff"/><path d="m512 407v-60c0 15.545-52.5 23.318-105 23.318v81.682c52.26 0 105-13.91 105-45z" fill="#cce6ff"/><path d="m511.98 346.2c-.89-30.53-53.17-44.2-104.98-44.2s-104.09 13.67-104.98 44.2c-.01.26-.02.53-.02.8 0 31.09 52.74 45 105 45s105-13.91 105-45c0-.27-.01-.54-.02-.8z" fill="#cce6ff"/><path d="m512 347c0-.27-.01-.54-.02-.8-.89-30.53-53.17-44.2-104.98-44.2v90c52.26 0 105-13.91 105-45z" fill="#b5c9f2"/><g id="Database_1_"><g><path d="m256 331c-24.814 0-45-20.186-45-45s20.186-45 45-45 45 20.186 45 45-20.186 45-45 45z" fill="#59abff"/></g></g><path d="m301 286c0-24.814-20.186-45-45-45v90c24.814 0 45-20.186 45-45z" fill="#4d87ff"/></g></svg>