<?xml version="1.0" encoding="UTF-8" standalone="no"?>
<svg
   xmlns:dc="http://purl.org/dc/elements/1.1/"
   xmlns:cc="http://creativecommons.org/ns#"
   xmlns:rdf="http://www.w3.org/1999/02/22-rdf-syntax-ns#"
   xmlns:svg="http://www.w3.org/2000/svg"
   xmlns="http://www.w3.org/2000/svg"
   version="1.1"
   id="svg26957"
   xml:space="preserve"
   width="312.5694"
   height="335.61191"
   viewBox="0 0 312.5694 335.6119"><metadata
     id="metadata26963"><rdf:RDF><cc:Work
         rdf:about=""><dc:format>image/svg+xml</dc:format><dc:type
           rdf:resource="http://purl.org/dc/dcmitype/StillImage" /><dc:title></dc:title></cc:Work></rdf:RDF></metadata><defs
     id="defs26961" /><g
     id="g26965"
     transform="matrix(1.3333333,0,0,-1.3333333,-0.54843732,336.01066)"><g
       id="g26967"
       transform="scale(0.1)"><path
         d="m 4.11328,1376.41 c 0,0 344.32772,496 1020.68672,1119.07 l 233.66,-180.36 c 0,0 -635.374,-627.17 -856.73,-938.71 0,0 524.696,-364.83 672.27,-590.285 0,0 -647.676,467.305 -1069.88672,590.285"
         style="fill:#edcf0c;fill-opacity:1;fill-rule:evenodd;stroke:none"
         id="path26969" /><path
         d="m 647.68,1433.8 c 0,0 455,631.27 1094.48,1086.28 0,0 438.61,-446.81 508.3,-971.51 0,0 -237.75,496.01 -496,700.97 0,0 -705.05,-668.17 -782.944,-819.84 0,0 496.004,-487.805 545.194,-1061.688 0,0 -110.68,491.898 -869.03,1065.788"
         style="fill:#26479b;fill-opacity:1;fill-rule:evenodd;stroke:none"
         id="path26971" /><path
         d="m 618.988,286.023 c 0,0 352.938,366.04 487.802,471.407 0,0 356.63,-430.41 282.85,-639.469 0,0 -61.49,-184.4649 -319.74,-86.0821 L 618.988,286.023"
         style="fill:#edcf0c;fill-opacity:1;fill-rule:evenodd;stroke:none"
         id="path26973" /><g
         id="g26975"
         transform="scale(10)"><text
           transform="matrix(1,0,0,-1,140.077,44.4371)"
           style="font-variant:normal;font-weight:800;font-size:142.281px;font-family:Arial;-inkscape-font-specification:ArialMTStd-ExtraBoldCond-ExtraBold;writing-mode:lr-tb;fill:#ed1c24;fill-opacity:1;fill-rule:nonzero;stroke:none"
           id="text26979"><tspan
             x="0"
             y="0"
             id="tspan26977">V</tspan></text></g></g></g></svg>
