<svg id="Capa_1" enable-background="new 0 0 512 512" height="512" viewBox="0 0 512 512" width="512" xmlns="http://www.w3.org/2000/svg"><g><path d="m271 400v97c0 8.28-6.72 15-15 15s-15-6.72-15-15v-97c0-8.28 6.72-15 15-15s15 6.72 15 15z" fill="#eef4ff"/><path d="m271 400v97c0 8.28-6.72 15-15 15v-127c8.28 0 15 6.72 15 15z" fill="#d9e6fc"/><path d="m512 208c0 74.44-61.01 135-136 135h-264c-61.76 0-112-49.79-112-111 0-68.145 61.602-120.125 129.12-109.69 3.012-67.828 59.592-122.31 126.88-122.31 48.78 0 93.48 28.95 114.56 73.11 77.72-2.987 141.44 58.871 141.44 134.89z" fill="#eef4ff"/><path d="m512 208c0 74.44-61.01 135-136 135h-120v-343c48.78 0 93.48 28.95 114.56 73.11 77.72-2.987 141.44 58.871 141.44 134.89z" fill="#d9e6fc"/><path d="m399 497c0 8.28-6.72 15-15 15h-256c-8.28 0-15-6.72-15-15s6.72-15 15-15h256c8.28 0 15 6.72 15 15z" fill="#d9e6fc"/><path d="m399 497c0 8.28-6.72 15-15 15h-128v-30h128c8.28 0 15 6.72 15 15z" fill="#bed9fd"/><path d="m383 224v66c0 16.569-13.431 30-30 30h-194c-16.569 0-30-13.431-30-30v-66c0-16.569 13.431-30 30-30h194c16.569 0 30 13.431 30 30z" fill="#425796"/><path d="m383 224v66c0 16.569-13.431 30-30 30h-97v-126h97c16.569 0 30 13.431 30 30z" fill="#283758"/><path d="m319 194v47c0 8.28-6.72 15-15 15s-15-6.72-15-15v-47z" fill="#dd5958"/><path d="m383 319v66c0 16.57-13.43 30-30 30h-194c-16.57 0-30-13.43-30-30v-66c0-5.46 1.46-10.59 4.03-15h245.94c2.57 4.41 4.03 9.54 4.03 15z" fill="#283758"/><path d="m383 319v66c0 16.57-13.43 30-30 30h-97v-111h122.97c2.57 4.41 4.03 9.54 4.03 15z" fill="#182135"/><path d="m319 304v32c0 8.28-6.72 15-15 15s-15-6.72-15-15v-32z" fill="#ffe278"/></g></svg>